# Blender v2.83.2 OBJ File: ''
# www.blender.org
mtllib BigassSword.mtl
o Cube.001
v 0.041620 -0.000000 2.584333
v 0.000000 -0.000000 3.000000
v 0.000000 -0.153750 2.584333
v -0.041620 -0.000000 2.584333
v 0.063000 0.000000 1.007382
v 0.000000 -0.187500 1.007382
v 0.000000 0.187500 1.007382
v 0.000000 0.153750 2.584333
v -0.063000 0.000000 1.007382
v 0.000000 0.261142 0.928471
v 0.000000 0.261142 1.007382
v 0.091854 0.000000 1.007382
v 0.091854 0.000000 0.928471
v 0.000000 -0.261142 1.007382
v 0.000000 -0.261142 0.928471
v -0.091854 0.000000 1.007382
v -0.091854 0.000000 0.928471
v 0.027716 0.011481 0.930766
v 0.027716 0.011481 0.277365
v 0.024944 0.016667 0.277365
v 0.024944 0.016667 0.930766
v 0.016667 0.024944 0.930766
v 0.016667 0.024944 0.277365
v 0.011480 0.027716 0.277365
v 0.011480 0.027716 0.930766
v 0.005853 0.029424 0.930766
v 0.005853 0.029424 0.277365
v 0.000000 0.030000 0.277365
v 0.000000 0.030000 0.930766
v 0.029424 0.005853 0.930766
v 0.029424 0.005853 0.277365
v 0.021213 0.021213 0.277365
v 0.021213 0.021213 0.930766
v 0.000000 0.051540 0.210876
v 0.000000 0.000000 0.162041
v -0.010055 0.050550 0.210876
v -0.019724 0.047617 0.210876
v -0.028634 0.042854 0.210876
v -0.036445 0.036445 0.210876
v -0.042854 0.028634 0.210876
v -0.047617 0.019724 0.210876
v -0.005853 0.029424 0.277365
v -0.005853 0.029424 0.930766
v -0.050550 0.010055 0.210876
v -0.011481 0.027716 0.277365
v -0.011480 0.027716 0.930766
v -0.051540 0.000000 0.210876
v -0.016667 0.024944 0.277365
v -0.016667 0.024944 0.930766
v -0.050550 -0.010055 0.210876
v -0.021213 0.021213 0.277365
v -0.021213 0.021213 0.930766
v -0.047617 -0.019724 0.210876
v -0.024944 0.016667 0.277365
v -0.024944 0.016667 0.930766
v -0.042854 -0.028634 0.210876
v -0.027716 0.011481 0.277365
v -0.027716 0.011481 0.930766
v -0.036445 -0.036445 0.210876
v -0.029424 0.005853 0.277365
v -0.029424 0.005853 0.930766
v -0.028634 -0.042854 0.210876
v -0.030000 0.000000 0.277365
v -0.030000 0.000000 0.930766
v -0.019724 -0.047617 0.210876
v -0.029424 -0.005853 0.277365
v -0.029424 -0.005853 0.930766
v -0.010055 -0.050550 0.210876
v -0.027716 -0.011480 0.277365
v -0.027716 -0.011480 0.930766
v 0.000000 -0.051540 0.210876
v -0.024944 -0.016667 0.277365
v -0.024944 -0.016667 0.930766
v 0.010055 -0.050550 0.210876
v -0.021213 -0.021213 0.277365
v -0.021213 -0.021213 0.930766
v 0.019724 -0.047617 0.210876
v -0.016667 -0.024944 0.277365
v -0.016667 -0.024944 0.930766
v 0.028634 -0.042854 0.210876
v -0.011480 -0.027716 0.277365
v -0.011480 -0.027716 0.930766
v 0.036445 -0.036445 0.210876
v -0.005853 -0.029424 0.277365
v -0.005853 -0.029424 0.930766
v 0.042854 -0.028634 0.210876
v 0.000000 -0.030000 0.277365
v 0.000000 -0.030000 0.930766
v 0.047617 -0.019724 0.210876
v 0.005853 -0.029424 0.277365
v 0.005853 -0.029424 0.930766
v 0.050550 -0.010055 0.210876
v 0.011481 -0.027716 0.277365
v 0.011481 -0.027716 0.930766
v 0.051540 0.000000 0.210876
v 0.016667 -0.024944 0.277365
v 0.016667 -0.024944 0.930766
v 0.050550 0.010055 0.210876
v 0.021213 -0.021213 0.277365
v 0.021213 -0.021213 0.930766
v 0.047617 0.019724 0.210876
v 0.024944 -0.016667 0.277365
v 0.024944 -0.016667 0.930766
v 0.042854 0.028634 0.210876
v 0.027716 -0.011480 0.277365
v 0.027716 -0.011480 0.930766
v 0.036444 0.036445 0.210876
v 0.029424 -0.005853 0.277365
v 0.029424 -0.005853 0.930766
v 0.028634 0.042854 0.210876
v 0.030000 0.000000 0.277365
v 0.030000 0.000000 0.930766
v 0.019724 0.047617 0.210876
v 0.010055 0.050550 0.210876
v 0.011360 0.057110 0.237947
v 0.000000 0.058229 0.237947
v 0.022283 0.053797 0.237947
v 0.032350 0.048416 0.237947
v 0.041174 0.041174 0.237947
v 0.048416 0.032351 0.237947
v 0.053797 0.022283 0.237947
v 0.057110 0.011360 0.237947
v 0.058229 0.000000 0.237947
v 0.057110 -0.011360 0.237947
v 0.053797 -0.022283 0.237947
v 0.048416 -0.032350 0.237947
v 0.041174 -0.041174 0.237947
v 0.032351 -0.048416 0.237947
v 0.022283 -0.053797 0.237947
v 0.011360 -0.057110 0.237947
v 0.000000 -0.058229 0.237947
v -0.011360 -0.057110 0.237947
v -0.022283 -0.053797 0.237947
v -0.032350 -0.048416 0.237947
v -0.041174 -0.041174 0.237947
v -0.048416 -0.032350 0.237947
v -0.053797 -0.022283 0.237947
v -0.057110 -0.011360 0.237947
v -0.058229 0.000000 0.237947
v -0.057110 0.011360 0.237947
v -0.053797 0.022283 0.237947
v -0.048416 0.032350 0.237947
v -0.041174 0.041174 0.237947
v -0.032350 0.048416 0.237947
v -0.022283 0.053797 0.237947
v -0.011360 0.057110 0.237947
vt 0.750000 0.625000
vt 0.875000 0.750000
vt 0.750000 0.750000
vt 0.125000 0.625000
vt 0.250000 0.625000
vt 0.250000 0.750000
vt 0.687500 0.625000
vt 0.687500 0.750000
vt 0.312500 0.500000
vt 0.250000 0.500000
vt 0.125000 0.500000
vt 0.312500 0.625000
vt 0.312500 0.750000
vt 0.625000 0.500000
vt 0.687500 0.500000
vt 0.687500 0.625000
vt 0.625000 0.625000
vt 0.687500 0.750000
vt 0.625000 0.750000
vt 0.312500 0.625000
vt 0.375000 0.625000
vt 0.375000 0.750000
vt 0.312500 0.750000
vt 0.312500 0.500000
vt 0.375000 0.500000
vt 0.187500 0.500000
vt 0.187500 0.750000
vt 0.156250 0.750000
vt 0.156250 0.500000
vt 0.093750 0.500000
vt 0.093750 0.750000
vt 0.062500 0.750000
vt 0.062500 0.500000
vt 0.031250 0.500000
vt 0.031250 0.750000
vt 0.000000 0.750000
vt 0.000000 0.500000
vt 0.218750 0.500000
vt 0.218750 0.750000
vt 0.125000 0.750000
vt 0.125000 0.500000
vt 1.000000 0.937500
vt 0.968750 1.000000
vt 0.968750 0.937500
vt 0.937500 1.000000
vt 0.937500 0.937500
vt 0.906250 1.000000
vt 0.906250 0.937500
vt 0.875000 1.000000
vt 0.875000 0.937500
vt 0.843750 1.000000
vt 0.843750 0.937500
vt 0.812500 1.000000
vt 0.812500 0.937500
vt 1.000000 0.500000
vt 1.000000 0.750000
vt 0.968750 0.750000
vt 0.968750 0.500000
vt 0.781250 1.000000
vt 0.781250 0.937500
vt 0.937500 0.750000
vt 0.937500 0.500000
vt 0.750000 1.000000
vt 0.750000 0.937500
vt 0.906250 0.750000
vt 0.906250 0.500000
vt 0.718750 1.000000
vt 0.718750 0.937500
vt 0.875000 0.750000
vt 0.875000 0.500000
vt 0.687500 1.000000
vt 0.687500 0.937500
vt 0.843750 0.750000
vt 0.843750 0.500000
vt 0.656250 1.000000
vt 0.656250 0.937500
vt 0.812500 0.750000
vt 0.812500 0.500000
vt 0.625000 1.000000
vt 0.625000 0.937500
vt 0.781250 0.750000
vt 0.781250 0.500000
vt 0.593750 1.000000
vt 0.593750 0.937500
vt 0.750000 0.750000
vt 0.750000 0.500000
vt 0.562500 1.000000
vt 0.562500 0.937500
vt 0.718750 0.750000
vt 0.718750 0.500000
vt 0.531250 1.000000
vt 0.531250 0.937500
vt 0.687500 0.750000
vt 0.687500 0.500000
vt 0.500000 1.000000
vt 0.500000 0.937500
vt 0.656250 0.750000
vt 0.656250 0.500000
vt 0.468750 1.000000
vt 0.468750 0.937500
vt 0.625000 0.750000
vt 0.625000 0.500000
vt 0.437500 1.000000
vt 0.437500 0.937500
vt 0.593750 0.750000
vt 0.593750 0.500000
vt 0.406250 1.000000
vt 0.406250 0.937500
vt 0.562500 0.750000
vt 0.562500 0.500000
vt 0.375000 1.000000
vt 0.375000 0.937500
vt 0.531250 0.750000
vt 0.531250 0.500000
vt 0.343750 1.000000
vt 0.343750 0.937500
vt 0.500000 0.750000
vt 0.500000 0.500000
vt 0.312500 1.000000
vt 0.312500 0.937500
vt 0.468750 0.750000
vt 0.468750 0.500000
vt 0.281250 1.000000
vt 0.281250 0.937500
vt 0.437500 0.750000
vt 0.437500 0.500000
vt 0.250000 1.000000
vt 0.250000 0.937500
vt 0.406250 0.750000
vt 0.406250 0.500000
vt 0.218750 1.000000
vt 0.218750 0.937500
vt 0.375000 0.750000
vt 0.375000 0.500000
vt 0.187500 1.000000
vt 0.187500 0.937500
vt 0.343750 0.750000
vt 0.343750 0.500000
vt 0.156250 1.000000
vt 0.156250 0.937500
vt 0.312500 0.750000
vt 0.312500 0.500000
vt 0.125000 1.000000
vt 0.125000 0.937500
vt 0.281250 0.750000
vt 0.281250 0.500000
vt 0.093750 1.000000
vt 0.093750 0.937500
vt 0.250000 0.750000
vt 0.250000 0.500000
vt 0.062500 1.000000
vt 0.062500 0.937500
vt 0.031250 1.000000
vt 0.031250 0.937500
vt 0.000000 1.000000
vt 0.000000 0.937500
vt 0.750000 0.490000
vt 0.796822 0.485388
vt 0.841844 0.471731
vt 0.883337 0.449553
vt 0.919706 0.419706
vt 0.949553 0.383337
vt 0.971731 0.341844
vt 0.985388 0.296822
vt 0.990000 0.250000
vt 0.985388 0.203178
vt 0.971731 0.158156
vt 0.949553 0.116663
vt 0.919706 0.080294
vt 0.883337 0.050447
vt 0.841844 0.028269
vt 0.796822 0.014612
vt 0.750000 0.010000
vt 0.703178 0.014612
vt 0.658156 0.028269
vt 0.616663 0.050447
vt 0.580294 0.080294
vt 0.550447 0.116663
vt 0.528269 0.158156
vt 0.514611 0.203179
vt 0.510000 0.250000
vt 0.514612 0.296822
vt 0.528269 0.341844
vt 0.550447 0.383337
vt 0.580295 0.419706
vt 0.616663 0.449553
vt 0.658156 0.471731
vt 0.703179 0.485389
vt 0.031250 0.875000
vt 0.000000 0.875000
vt 0.062500 0.875000
vt 0.093750 0.875000
vt 0.125000 0.875000
vt 0.156250 0.875000
vt 0.187500 0.875000
vt 0.218750 0.875000
vt 0.250000 0.875000
vt 0.281250 0.875000
vt 0.312500 0.875000
vt 0.343750 0.875000
vt 0.375000 0.875000
vt 0.406250 0.875000
vt 0.437500 0.875000
vt 0.468750 0.875000
vt 0.500000 0.875000
vt 0.531250 0.875000
vt 0.562500 0.875000
vt 0.593750 0.875000
vt 0.625000 0.875000
vt 0.656250 0.875000
vt 0.687500 0.875000
vt 0.718750 0.875000
vt 0.750000 0.875000
vt 0.781250 0.875000
vt 0.812500 0.875000
vt 0.843750 0.875000
vt 0.875000 0.875000
vt 0.906250 0.875000
vt 0.937500 0.875000
vt 0.968750 0.875000
vt 1.000000 0.875000
vn 0.9608 -0.2601 0.0962
vn -0.9608 -0.2601 0.0962
vn 0.9560 -0.2931 0.0096
vn 0.9560 0.2931 0.0096
vn -0.9608 0.2601 0.0962
vn 0.9608 0.2601 0.0962
vn -0.9560 0.2931 0.0096
vn -0.9560 -0.2931 0.0096
vn 0.9433 0.3318 0.0000
vn 0.9433 -0.3318 -0.0000
vn -0.9433 -0.3318 -0.0000
vn -0.9433 0.3318 0.0000
vn 0.0000 0.0000 1.0000
vn 0.8819 0.4714 0.0000
vn 0.4713 0.8820 0.0000
vn 0.0979 0.9952 0.0000
vn 0.0000 0.0000 -1.0000
vn 0.9569 0.2904 0.0000
vn 0.7730 0.6344 0.0000
vn 0.6344 0.7730 0.0000
vn 0.2905 0.9569 0.0000
vn -0.0676 0.6862 -0.7242
vn -0.2002 0.6599 -0.7242
vn -0.3251 0.6081 -0.7242
vn -0.4374 0.5331 -0.7242
vn -0.5331 0.4374 -0.7242
vn -0.6081 0.3251 -0.7242
vn -0.0979 0.9952 0.0000
vn -0.6599 0.2002 -0.7242
vn -0.2904 0.9569 0.0000
vn -0.6862 0.0676 -0.7242
vn -0.4714 0.8819 0.0000
vn -0.6862 -0.0676 -0.7242
vn -0.6344 0.7730 0.0000
vn -0.6599 -0.2002 -0.7242
vn -0.7730 0.6344 0.0000
vn -0.6081 -0.3251 -0.7242
vn -0.8819 0.4714 0.0000
vn -0.5331 -0.4374 -0.7242
vn -0.9569 0.2904 0.0000
vn -0.4374 -0.5331 -0.7242
vn -0.9952 0.0979 0.0000
vn -0.3251 -0.6081 -0.7242
vn -0.9952 -0.0979 -0.0000
vn -0.2002 -0.6599 -0.7242
vn -0.9570 -0.2901 -0.0000
vn -0.0676 -0.6862 -0.7242
vn -0.8820 -0.4713 -0.0000
vn 0.0676 -0.6862 -0.7242
vn -0.7730 -0.6344 -0.0000
vn 0.2002 -0.6599 -0.7242
vn -0.6344 -0.7730 -0.0000
vn 0.3251 -0.6081 -0.7242
vn -0.4713 -0.8820 -0.0000
vn 0.4374 -0.5331 -0.7242
vn -0.2905 -0.9569 -0.0000
vn 0.5331 -0.4374 -0.7242
vn -0.0979 -0.9952 -0.0000
vn 0.6081 -0.3251 -0.7242
vn 0.0979 -0.9952 -0.0000
vn 0.6599 -0.2002 -0.7242
vn 0.2904 -0.9569 -0.0000
vn 0.6862 -0.0676 -0.7242
vn 0.4714 -0.8819 -0.0000
vn 0.6862 0.0676 -0.7242
vn 0.6344 -0.7730 -0.0000
vn 0.6599 0.2002 -0.7242
vn 0.7730 -0.6344 -0.0000
vn 0.6081 0.3251 -0.7242
vn 0.8820 -0.4713 -0.0000
vn 0.5330 0.4374 -0.7242
vn 0.9570 -0.2901 -0.0000
vn 0.4374 0.5330 -0.7242
vn 0.9952 -0.0979 -0.0000
vn 0.3251 0.6081 -0.7242
vn 0.9952 0.0979 0.0000
vn 0.2002 0.6599 -0.7242
vn 0.0676 0.6862 -0.7242
vn 0.0798 0.8104 0.5804
vn 0.2364 0.7793 0.5804
vn 0.3839 0.7182 0.5804
vn 0.5166 0.6295 0.5804
vn 0.6295 0.5166 0.5804
vn 0.7182 0.3839 0.5804
vn 0.7793 0.2364 0.5804
vn 0.8104 0.0798 0.5804
vn 0.8104 -0.0798 0.5804
vn 0.7793 -0.2364 0.5804
vn 0.7182 -0.3839 0.5804
vn 0.6295 -0.5166 0.5804
vn 0.5166 -0.6295 0.5804
vn 0.3839 -0.7182 0.5804
vn 0.2364 -0.7793 0.5804
vn 0.0798 -0.8104 0.5804
vn -0.0798 -0.8104 0.5804
vn -0.2364 -0.7793 0.5804
vn -0.3839 -0.7182 0.5804
vn -0.5166 -0.6295 0.5804
vn -0.6295 -0.5166 0.5804
vn -0.7182 -0.3839 0.5804
vn -0.7793 -0.2364 0.5804
vn -0.8104 -0.0798 0.5804
vn -0.8104 0.0798 0.5804
vn -0.7793 0.2364 0.5804
vn -0.7182 0.3839 0.5804
vn -0.6295 0.5166 0.5804
vn -0.5166 0.6295 0.5804
vn -0.3839 0.7182 0.5804
vn -0.2364 0.7793 0.5804
vn -0.0798 0.8104 0.5804
vn 0.0952 0.9664 -0.2388
vn 0.2819 0.9293 -0.2388
vn 0.4578 0.8564 -0.2388
vn 0.6160 0.7507 -0.2388
vn 0.7506 0.6161 -0.2388
vn 0.8564 0.4578 -0.2388
vn 0.9293 0.2819 -0.2388
vn 0.9664 0.0952 -0.2388
vn 0.9664 -0.0952 -0.2388
vn 0.9293 -0.2819 -0.2388
vn 0.8564 -0.4578 -0.2388
vn 0.7507 -0.6160 -0.2388
vn 0.6160 -0.7507 -0.2388
vn 0.4578 -0.8564 -0.2388
vn 0.2819 -0.9293 -0.2388
vn 0.0952 -0.9664 -0.2388
vn -0.0952 -0.9664 -0.2388
vn -0.2819 -0.9293 -0.2388
vn -0.4578 -0.8564 -0.2388
vn -0.6160 -0.7507 -0.2388
vn -0.7507 -0.6160 -0.2388
vn -0.8564 -0.4578 -0.2388
vn -0.9293 -0.2819 -0.2388
vn -0.9664 -0.0952 -0.2388
vn -0.9664 0.0952 -0.2388
vn -0.9293 0.2819 -0.2388
vn -0.8564 0.4578 -0.2388
vn -0.7507 0.6160 -0.2388
vn -0.6160 0.7507 -0.2388
vn -0.4578 0.8564 -0.2388
vn -0.2819 0.9293 -0.2388
vn -0.0952 0.9664 -0.2388
usemtl Material.001
s 1
f 1/1/1 2/2/1 3/3/1
f 2/4/2 4/5/2 3/6/2
f 5/7/3 1/1/3 3/3/3 6/8/3
f 5/7/4 7/9/4 8/10/4 1/1/4
f 2/11/5 8/10/5 4/5/5
f 2/2/6 1/1/6 8/10/6
f 8/10/7 7/9/7 9/12/7 4/5/7
f 4/5/8 9/12/8 6/13/8 3/6/8
f 10/14/9 11/15/9 12/16/9 13/17/9
f 13/17/10 12/16/10 14/18/10 15/19/10
f 16/20/11 17/21/11 15/22/11 14/23/11
f 11/24/12 10/25/12 17/21/12 16/20/12
f 12/16/13 11/24/13 16/20/13 14/18/13
f 18/26/14 19/27/14 20/28/14 21/29/14
f 22/30/15 23/31/15 24/32/15 25/33/15
f 26/34/16 27/35/16 28/36/16 29/37/16
f 10/14/17 13/17/17 15/22/17 17/21/17
f 30/38/18 31/39/18 19/27/18 18/26/18
f 21/29/19 20/28/19 32/40/19 33/41/19
f 33/41/20 32/40/20 23/31/20 22/30/20
f 25/33/21 24/32/21 27/35/21 26/34/21
f 34/42/22 35/43/22 36/44/22
f 36/44/23 35/45/23 37/46/23
f 37/46/24 35/47/24 38/48/24
f 38/48/25 35/49/25 39/50/25
f 39/50/26 35/51/26 40/52/26
f 40/52/27 35/53/27 41/54/27
f 29/55/28 28/56/28 42/57/28 43/58/28
f 41/54/29 35/59/29 44/60/29
f 43/58/30 42/57/30 45/61/30 46/62/30
f 44/60/31 35/63/31 47/64/31
f 46/62/32 45/61/32 48/65/32 49/66/32
f 47/64/33 35/67/33 50/68/33
f 49/66/34 48/65/34 51/69/34 52/70/34
f 50/68/35 35/71/35 53/72/35
f 52/70/36 51/69/36 54/73/36 55/74/36
f 53/72/37 35/75/37 56/76/37
f 55/74/38 54/73/38 57/77/38 58/78/38
f 56/76/39 35/79/39 59/80/39
f 58/78/40 57/77/40 60/81/40 61/82/40
f 59/80/41 35/83/41 62/84/41
f 61/82/42 60/81/42 63/85/42 64/86/42
f 62/84/43 35/87/43 65/88/43
f 64/86/44 63/85/44 66/89/44 67/90/44
f 65/88/45 35/91/45 68/92/45
f 67/90/46 66/89/46 69/93/46 70/94/46
f 68/92/47 35/95/47 71/96/47
f 70/94/48 69/93/48 72/97/48 73/98/48
f 71/96/49 35/99/49 74/100/49
f 73/98/50 72/97/50 75/101/50 76/102/50
f 74/100/51 35/103/51 77/104/51
f 76/102/52 75/101/52 78/105/52 79/106/52
f 77/104/53 35/107/53 80/108/53
f 79/106/54 78/105/54 81/109/54 82/110/54
f 80/108/55 35/111/55 83/112/55
f 82/110/56 81/109/56 84/113/56 85/114/56
f 83/112/57 35/115/57 86/116/57
f 85/114/58 84/113/58 87/117/58 88/118/58
f 86/116/59 35/119/59 89/120/59
f 88/118/60 87/117/60 90/121/60 91/122/60
f 89/120/61 35/123/61 92/124/61
f 91/122/62 90/121/62 93/125/62 94/126/62
f 92/124/63 35/127/63 95/128/63
f 94/126/64 93/125/64 96/129/64 97/130/64
f 95/128/65 35/131/65 98/132/65
f 97/130/66 96/129/66 99/133/66 100/134/66
f 98/132/67 35/135/67 101/136/67
f 100/134/68 99/133/68 102/137/68 103/138/68
f 101/136/69 35/139/69 104/140/69
f 103/138/70 102/137/70 105/141/70 106/142/70
f 104/140/71 35/143/71 107/144/71
f 106/142/72 105/141/72 108/145/72 109/146/72
f 107/144/73 35/147/73 110/148/73
f 109/146/74 108/145/74 111/149/74 112/150/74
f 110/148/75 35/151/75 113/152/75
f 112/150/76 111/149/76 31/39/76 30/38/76
f 113/152/77 35/153/77 114/154/77
f 114/154/78 35/155/78 34/156/78
f 29/157/13 43/158/13 46/159/13 49/160/13 52/161/13 55/162/13 58/163/13 61/164/13 64/165/13 67/166/13 70/167/13 73/168/13 76/169/13 79/170/13 82/171/13 85/172/13 88/173/13 91/174/13 94/175/13 97/176/13 100/177/13 103/178/13 106/179/13 109/180/13 112/181/13 30/182/13 18/183/13 21/184/13 33/185/13 22/186/13 25/187/13 26/188/13
f 27/35/79 115/189/79 116/190/79 28/36/79
f 24/32/80 117/191/80 115/189/80 27/35/80
f 23/31/81 118/192/81 117/191/81 24/32/81
f 32/40/82 119/193/82 118/192/82 23/31/82
f 20/28/83 120/194/83 119/193/83 32/40/83
f 19/27/84 121/195/84 120/194/84 20/28/84
f 31/39/85 122/196/85 121/195/85 19/27/85
f 111/149/86 123/197/86 122/196/86 31/39/86
f 108/145/87 124/198/87 123/197/87 111/149/87
f 105/141/88 125/199/88 124/198/88 108/145/88
f 102/137/89 126/200/89 125/199/89 105/141/89
f 99/133/90 127/201/90 126/200/90 102/137/90
f 96/129/91 128/202/91 127/201/91 99/133/91
f 93/125/92 129/203/92 128/202/92 96/129/92
f 90/121/93 130/204/93 129/203/93 93/125/93
f 87/117/94 131/205/94 130/204/94 90/121/94
f 84/113/95 132/206/95 131/205/95 87/117/95
f 81/109/96 133/207/96 132/206/96 84/113/96
f 78/105/97 134/208/97 133/207/97 81/109/97
f 75/101/98 135/209/98 134/208/98 78/105/98
f 72/97/99 136/210/99 135/209/99 75/101/99
f 69/93/100 137/211/100 136/210/100 72/97/100
f 66/89/101 138/212/101 137/211/101 69/93/101
f 63/85/102 139/213/102 138/212/102 66/89/102
f 60/81/103 140/214/103 139/213/103 63/85/103
f 57/77/104 141/215/104 140/214/104 60/81/104
f 54/73/105 142/216/105 141/215/105 57/77/105
f 51/69/106 143/217/106 142/216/106 54/73/106
f 48/65/107 144/218/107 143/217/107 51/69/107
f 45/61/108 145/219/108 144/218/108 48/65/108
f 42/57/109 146/220/109 145/219/109 45/61/109
f 28/56/110 116/221/110 146/220/110 42/57/110
f 115/189/111 114/154/111 34/156/111 116/190/111
f 117/191/112 113/152/112 114/154/112 115/189/112
f 118/192/113 110/148/113 113/152/113 117/191/113
f 119/193/114 107/144/114 110/148/114 118/192/114
f 120/194/115 104/140/115 107/144/115 119/193/115
f 121/195/116 101/136/116 104/140/116 120/194/116
f 122/196/117 98/132/117 101/136/117 121/195/117
f 123/197/118 95/128/118 98/132/118 122/196/118
f 124/198/119 92/124/119 95/128/119 123/197/119
f 125/199/120 89/120/120 92/124/120 124/198/120
f 126/200/121 86/116/121 89/120/121 125/199/121
f 127/201/122 83/112/122 86/116/122 126/200/122
f 128/202/123 80/108/123 83/112/123 127/201/123
f 129/203/124 77/104/124 80/108/124 128/202/124
f 130/204/125 74/100/125 77/104/125 129/203/125
f 131/205/126 71/96/126 74/100/126 130/204/126
f 132/206/127 68/92/127 71/96/127 131/205/127
f 133/207/128 65/88/128 68/92/128 132/206/128
f 134/208/129 62/84/129 65/88/129 133/207/129
f 135/209/130 59/80/130 62/84/130 134/208/130
f 136/210/131 56/76/131 59/80/131 135/209/131
f 137/211/132 53/72/132 56/76/132 136/210/132
f 138/212/133 50/68/133 53/72/133 137/211/133
f 139/213/134 47/64/134 50/68/134 138/212/134
f 140/214/135 44/60/135 47/64/135 139/213/135
f 141/215/136 41/54/136 44/60/136 140/214/136
f 142/216/137 40/52/137 41/54/137 141/215/137
f 143/217/138 39/50/138 40/52/138 142/216/138
f 144/218/139 38/48/139 39/50/139 143/217/139
f 145/219/140 37/46/140 38/48/140 144/218/140
f 146/220/141 36/44/141 37/46/141 145/219/141
f 116/221/142 34/42/142 36/44/142 146/220/142
